<svg xmlns="http://www.w3.org/2000/svg" viewBox="0 0 512 512">
  <rect width="512" height="512" rx="112" fill="#07111f"/>
  <rect x="54" y="54" width="404" height="404" rx="92" fill="#0d2032" stroke="#35d2e5" stroke-width="16"/>
  <path d="M151 176c17-33 52-54 98-54 63 0 104 34 104 82 0 31-18 55-49 68 37 11 59 38 59 72 0 57-47 91-115 91-50 0-89-21-108-59l52-30c11 22 28 33 55 33 29 0 49-14 49-39 0-24-20-37-58-37h-30v-52h27c35 0 54-13 54-37 0-21-17-34-43-34-24 0-41 11-51 30z" fill="#35d2e5"/>
</svg>
